<svg width="182" height="35" fill="none" xmlns="http://www.w3.org/2000/svg"><path d="M66.127 12.387h2.732l-4.857 15.04H61.64l-3.778-9.707a18.547 18.547 0 0 1-.574-1.822c-.202.73-.416 1.37-.64 1.922l-3.678 9.607h-2.226l-5.026-15.04h2.9l2.97 9.408c.044.155.1.375.168.663.09.287.169.585.236.894.09.287.146.464.169.53.404-1.37.618-2.065.64-2.087l3.441-9.408h2.328l3.474 9.375.709 2.153c.157-.75.36-1.513.607-2.286l2.766-9.242ZM83.405 23.584l.843 2.087c-1.462 1.303-3.362 1.954-5.7 1.954-2.474 0-4.442-.706-5.904-2.12-1.484-1.413-2.226-3.301-2.226-5.665 0-2.23.697-4.085 2.091-5.565 1.372-1.48 3.284-2.22 5.735-2.22 2.024 0 3.7.641 5.026 1.922 1.35 1.259 2.024 2.893 2.024 4.903a8.96 8.96 0 0 1-.169 1.789H73.454c.112 1.391.64 2.484 1.585 3.28.967.794 2.204 1.192 3.71 1.192 1.98 0 3.531-.52 4.656-1.557Zm-5.296-9.044c-1.327 0-2.429.365-3.306 1.093-.855.73-1.36 1.69-1.518 2.882h9.21c-.068-1.236-.496-2.208-1.283-2.915-.764-.707-1.799-1.06-3.103-1.06ZM88.955 25.903V4.105h2.699v9.706c.562-.53 1.27-.95 2.125-1.258a7.314 7.314 0 0 1 2.597-.498c2.227 0 3.981.696 5.262 2.088 1.305 1.369 1.957 3.19 1.957 5.466 0 2.451-.765 4.406-2.294 5.863-1.53 1.436-3.576 2.153-6.14 2.153-2.54 0-4.61-.574-6.206-1.722Zm6.814-11.363a5.23 5.23 0 0 0-2.328.563c-.764.376-1.36.829-1.787 1.359v7.652c1.034.685 2.248 1.027 3.643 1.027 1.596 0 2.9-.486 3.913-1.458 1.012-.971 1.518-2.263 1.518-3.876 0-1.634-.45-2.915-1.35-3.842-.9-.95-2.102-1.425-3.609-1.425ZM110.167 33.92h-2.699V12.387h2.699v1.756c.54-.619 1.282-1.116 2.226-1.491a7.497 7.497 0 0 1 2.935-.596c2.159 0 3.857.706 5.094 2.12 1.282 1.391 1.923 3.202 1.923 5.433 0 2.274-.731 4.185-2.193 5.73-1.439 1.525-3.34 2.287-5.701 2.287-1.821 0-3.249-.343-4.284-1.027v7.32Zm4.385-19.38c-1.799 0-3.26.685-4.385 2.054v7.387c1.192.773 2.541 1.16 4.048 1.16 1.597 0 2.867-.497 3.812-1.49.967-1.017 1.45-2.33 1.45-3.943 0-1.568-.438-2.816-1.315-3.743-.877-.95-2.08-1.425-3.61-1.425ZM127.427 25.44c-1.484-1.503-2.226-3.369-2.226-5.6 0-2.252.742-4.107 2.226-5.565 1.507-1.48 3.463-2.22 5.869-2.22 2.407 0 4.352.74 5.836 2.22 1.507 1.458 2.26 3.313 2.26 5.565 0 2.253-.753 4.12-2.26 5.6-1.484 1.457-3.429 2.185-5.836 2.185-2.383 0-4.34-.728-5.869-2.186Zm2.125-9.41c-.989.973-1.484 2.242-1.484 3.81 0 1.569.483 2.838 1.45 3.81.99.994 2.249 1.49 3.778 1.49 1.53 0 2.778-.485 3.745-1.457.989-.994 1.484-2.274 1.484-3.843 0-1.523-.495-2.793-1.484-3.81-.967-.993-2.215-1.49-3.745-1.49-1.529 0-2.777.497-3.744 1.49ZM148.727 27.294h-2.699V12.387h2.699v14.907Zm-3.036-20.506c0-.464.169-.839.506-1.126.337-.31.753-.464 1.248-.464.472 0 .866.155 1.181.464.314.287.472.662.472 1.126 0 .508-.158.928-.472 1.26-.315.308-.709.463-1.181.463-.495 0-.911-.155-1.248-.464-.337-.331-.506-.75-.506-1.259ZM157.011 27.294h-2.699V12.387h2.699v1.822c.562-.619 1.293-1.115 2.193-1.49.922-.398 1.844-.597 2.766-.597 4.205 0 6.308 2.186 6.308 6.559v8.613h-2.699v-8.116c0-3.048-1.428-4.572-4.284-4.572-1.709 0-3.137.64-4.284 1.922v10.766ZM172.488 21.63V8.245h2.699v4.14h5.566v2.485h-5.566v6.493c0 2.474.9 3.71 2.699 3.71.877 0 1.675-.275 2.395-.828l.843 2.054c-1.057.84-2.35 1.26-3.879 1.26-1.642 0-2.845-.487-3.61-1.458-.764-.972-1.147-2.463-1.147-4.473Z" fill="#1F4CE4"/><path fill-rule="evenodd" clip-rule="evenodd" d="M15.3 32.126V35a17.733 17.733 0 0 1-2.703-.583C5.309 32.238 0 25.525 0 17.581c0-1.214.124-2.399.36-3.543C2.012 6.026 9.154 0 17.715 0 27.499 0 35.43 7.871 35.43 17.581c0 7.944-5.309 14.657-12.597 16.836A17.732 17.732 0 0 1 20.13 35V31.965h.005c.075-1.079.883-1.973 1.923-2.343a12.923 12.923 0 0 0 1.796-.798c4.017-2.165 6.743-6.388 6.743-11.243 0-.883-.09-1.745-.261-2.577-1.202-5.826-6.396-10.21-12.622-10.21C10.6 4.795 4.83 10.52 4.83 17.582c0 5.366 3.331 9.96 8.052 11.857.161.064.324.126.487.184 1.041.37 1.85 1.264 1.924 2.343h.005v.161Z" fill="#1F4CE4"/></svg>